<svg xmlns="http://www.w3.org/2000/svg" viewBox="0 0 400 440" width="400" height="440">
  <defs>
    <clipPath id="bubble-clip">
      <path d="M70 40 L270 40 Q300 40 300 70 L300 210 Q300 240 270 240 L150 240 L100 290 L110 240 L100 240 Q70 240 70 210 Z"/>
    </clipPath>
  </defs>

  <!-- Green chat bubble -->
  <path d="M70 40 L270 40 Q300 40 300 70 L300 210 Q300 240 270 240 L150 240 L100 290 L110 240 L100 240 Q70 240 70 210 Z" fill="#25D366"/>

  <!-- WhatsApp circle + icon centered in bubble -->
  <circle cx="185" cy="140" r="68" fill="rgba(255,255,255,0.15)"/>
  <g transform="translate(185, 140)">
    <!-- WhatsApp phone icon -->
    <path d="M0-42C-23.2-42-42-23.2-42 0c0 7.4 1.9 14.4 5.4 20.6L-42 42l22-5.8C-13.8 39.6-7 41.4 0 41.4 23.2 41.4 42 22.6 42 0S23.2-42 0-42zm0 76.8c-6.4 0-12.4-1.7-17.7-4.7l-1.3-.8-13.2 3.5 3.5-12.8-.9-1.4C-32.5 10.4-34.2 5.4-34.2 0c0-18.8 15.4-34.2 34.2-34.2S34.2-18.8 34.2 0 18.8 34.8 0 34.8zm18.8-25.6c-1-.5-6-3-6.9-3.3-1-.3-1.7-.5-2.4.5s-2.8 3.3-3.4 4-.9.8-2.2.3c-1.2-.5-4.2-1.6-8-5-3-2.7-5-6-5.5-7-.6-1 0-1.5.5-2 .5-.5 1-1.3 1.5-2 .5-.7.7-1.2 1-2 .3-.8 0-1.5-.2-2-.3-.5-2.4-5.8-3.3-8-1-2.3-1.8-1.8-2.4-1.8-.6 0-1.4 0-2.1 0s-2 .3-3 1.3c-1 1-3.8 3.7-3.8 9 0 5.2 3.9 10.3 4.4 11 .5.7 7.6 11.5 18.4 16.1 2.6 1.1 4.6 1.8 6.1 2.3 2.6.8 4.9.7 6.7.4 2-.3 6-2.5 6.9-4.8.9-2.4.9-4.4.6-4.8z" fill="white"/>
  </g>

  <!-- Database icon (bottom-right, overlapping bubble) -->
  <g transform="translate(248, 185)">
    <!-- Cylinder body -->
    <path d="M0 20 L0 95 Q0 110 50 110 Q100 110 100 95 L100 20" fill="#1a1a1a"/>
    <!-- Bottom ellipse -->
    <ellipse cx="50" cy="95" rx="50" ry="15" fill="#2a2a2a"/>
    <!-- Middle line 2 -->
    <ellipse cx="50" cy="70" rx="50" ry="10" fill="none" stroke="#555" stroke-width="2"/>
    <!-- Middle line 1 -->
    <ellipse cx="50" cy="45" rx="50" ry="10" fill="none" stroke="#555" stroke-width="2"/>
    <!-- Top ellipse (lid) -->
    <ellipse cx="50" cy="20" rx="50" ry="15" fill="#2a2a2a"/>
    <ellipse cx="50" cy="20" rx="50" ry="15" fill="none" stroke="#333" stroke-width="1"/>
  </g>

  <!-- Text: WA Greeting Chat -->
  <text x="200" y="360" text-anchor="middle" font-family="Arial, Helvetica, sans-serif" font-size="38" font-weight="bold" fill="#1a1a1a" letter-spacing="0.5">WA Greeting Chat</text>
  <!-- Text: by Gio Fandi -->
  <text x="200" y="395" text-anchor="middle" font-family="Arial, Helvetica, sans-serif" font-size="22" fill="#666">by Gio Fandi</text>
</svg>
